<?xml version="1.0" standalone="no"?>
<!DOCTYPE svg PUBLIC "-//W3C//DTD SVG 20010904//EN"
 "http://www.w3.org/TR/2001/REC-SVG-20010904/DTD/svg10.dtd">
<svg version="1.0" xmlns="http://www.w3.org/2000/svg"
 width="540.000000pt" height="540.000000pt" viewBox="0 0 540.000000 540.000000"
 preserveAspectRatio="xMidYMid meet">
<metadata>
Created by potrace 1.14, written by Peter Selinger 2001-2017
</metadata>
<g transform="translate(0.000000,540.000000) scale(0.100000,-0.100000)"
fill="#000000" stroke="none">
<path d="M574 4826 l-34 -34 0 -2092 0 -2092 34 -34 c31 -31 40 -34 90 -34
l56 0 0 -66 c0 -62 2 -68 34 -100 l34 -34 2092 0 2092 0 34 34 34 34 0 2092 0
2092 -34 34 c-31 31 -40 34 -90 34 l-56 0 0 66 c0 62 -2 68 -34 100 l-34 34
-2092 0 -2092 0 -34 -34z m1213 -1202 c15 -11 38 -40 51 -64 l22 -44 0 -576
c0 -632 2 -659 60 -777 35 -70 104 -135 170 -158 64 -23 167 -29 235 -15 157
32 241 126 279 312 14 65 16 167 16 649 0 552 1 574 20 614 29 60 79 85 167
85 80 0 121 -20 161 -80 l23 -35 -3 -630 c-4 -615 -4 -632 -26 -710 -74 -267
-230 -429 -479 -497 -66 -18 -105 -21 -253 -21 -148 0 -187 3 -253 21 -258 71
-419 256 -484 557 -20 90 -32 1205 -14 1272 14 51 45 91 85 109 48 22 187 15
223 -12z m1990 0 c15 -11 38 -38 50 -60 l23 -39 0 -853 c0 -839 0 -853 -20
-893 -33 -63 -68 -79 -180 -79 -110 0 -151 15 -187 69 l-23 34 0 872 0 872 23
34 c37 56 77 70 189 67 79 -2 102 -7 125 -24z"/>
</g>
</svg>
